# Blender v2.80 (sub 75) OBJ File: 'Diamond.blend'
# www.blender.org
mtllib Diamond.mtl
o PrincessCutDiamond_Plane
v -0.012284 0.009989 0.012284
v 0.012284 0.009989 0.012284
v -0.012284 0.009989 -0.012284
v 0.012284 0.009989 -0.012284
v -0.014780 0.009989 0.000000
v 0.000000 0.009989 0.014780
v 0.014780 0.009989 0.000000
v 0.000000 0.009989 -0.014780
v 0.000000 0.009989 0.000000
v -0.025009 0.004127 0.025009
v 0.025009 0.004127 0.025009
v -0.025009 0.004127 -0.025009
v 0.025009 0.004127 -0.025009
v -0.019895 0.008786 -0.012505
v 0.012505 0.008786 0.019895
v 0.019895 0.008786 -0.012505
v 0.012505 0.008786 -0.019895
v -0.012505 0.008786 -0.019895
v 0.019895 0.008786 0.012505
v -0.012505 0.008786 0.019895
v -0.019895 0.008786 0.012505
v -0.025009 0.003232 0.025009
v 0.025009 0.003232 0.025009
v -0.025009 0.003232 -0.025009
v 0.025009 0.003232 -0.025009
v 0.000000 -0.024041 0.000000
v 0.000000 0.004127 0.025009
v 0.000000 0.003232 0.025009
v 0.025009 0.004127 -0.000000
v 0.025009 0.003232 -0.000000
v 0.000000 0.004127 -0.025009
v 0.000000 0.003232 -0.025009
v -0.025009 0.004127 -0.000000
v -0.025009 0.003232 -0.000000
v 0.000000 -0.005317 0.019925
v 0.019925 -0.005317 -0.000000
v 0.000000 -0.005317 -0.019925
v -0.019925 -0.005317 -0.000000
v 0.000000 -0.012062 0.013725
v 0.013725 -0.012062 -0.000000
v 0.000000 -0.012062 -0.013725
v -0.013725 -0.012062 -0.000000
v 0.000000 -0.018119 0.007179
v 0.007179 -0.018119 -0.000000
v 0.000000 -0.018119 -0.007179
v -0.007179 -0.018119 -0.000000
vt 0.500000 0.500000
vt 1.000000 0.500000
vt 1.000000 1.000000
vt 0.500000 1.000000
vt 0.000000 0.500000
vt 0.000000 1.000000
vt 0.000000 0.000000
vt 0.500000 0.000000
vt 1.000000 0.000000
vt 0.000000 0.000000
vt 0.000000 0.000000
vt 0.000000 0.000000
vt 0.000000 0.000000
vt 0.000000 0.000000
vt 0.000000 0.000000
vt 0.000000 0.000000
vt 0.000000 0.000000
vt 0.000000 0.000000
vt 0.000000 0.000000
vt 0.000000 0.000000
vt 0.000000 0.000000
vt 0.000000 0.000000
vt 0.000000 0.000000
vt 0.000000 0.000000
vt 0.000000 0.000000
vt 0.000000 0.000000
vt 0.000000 0.000000
vt 0.000000 0.000000
vt 0.000000 0.000000
vt 0.000000 0.000000
vt 0.000000 0.000000
vt 0.000000 0.000000
vt 0.000000 0.000000
vt 0.000000 0.000000
vt 0.000000 0.000000
vt 0.000000 0.000000
vt 0.000000 0.000000
vt 0.000000 0.000000
vt 0.000000 0.000000
vt 0.000000 0.000000
vt 0.000000 0.000000
vt 0.000000 0.000000
vt 0.000000 0.000000
vt 0.000000 0.000000
vt 0.000000 0.000000
vt 0.000000 0.000000
vt 0.000000 0.000000
vt 0.000000 0.000000
vt 0.000000 0.000000
vt 0.000000 0.000000
vt 0.000000 0.000000
vt 0.000000 0.000000
vn 0.0000 1.0000 0.0000
vn -0.2190 0.9508 -0.2190
vn 0.2190 0.9508 -0.2190
vn 0.2190 0.9508 0.2190
vn -0.2190 0.9508 0.2190
vn -0.2289 0.9735 0.0000
vn 0.0000 0.9735 0.2289
vn 0.0000 0.9735 -0.2289
vn -0.0315 0.9874 -0.1551
vn -0.1551 0.9874 -0.0315
vn -0.1551 0.9874 0.0315
vn -0.0315 0.9874 0.1551
vn 0.0315 0.9874 0.1551
vn 0.1551 0.9874 0.0315
vn 0.1551 0.9874 -0.0315
vn 0.0315 0.9874 -0.1551
vn 0.0000 0.7392 -0.6735
vn -0.6735 0.7392 0.0000
vn 0.2289 0.9735 0.0000
vn 0.6735 0.7392 0.0000
vn 0.0000 0.7392 0.6735
vn 0.0000 0.0000 1.0000
vn 0.0000 0.0000 -1.0000
vn 1.0000 0.0000 0.0000
vn -1.0000 0.0000 0.0000
vn -0.7338 -0.6745 0.0814
vn 0.6724 -0.7267 0.1410
vn 0.0814 -0.6745 -0.7338
vn -0.1410 -0.7267 0.6724
vn 0.0000 -0.5111 0.8595
vn 0.8595 -0.5111 0.0000
vn 0.0000 -0.5111 -0.8595
vn -0.8595 -0.5111 0.0000
vn 0.1410 -0.7267 0.6724
vn 0.6724 -0.7267 -0.1410
vn -0.0814 -0.6745 -0.7338
vn -0.6724 -0.7267 0.1410
vn 0.0814 -0.6745 0.7338
vn -0.0814 -0.6745 0.7338
vn 0.7338 -0.6745 -0.0814
vn 0.1410 -0.7267 -0.6724
vn -0.1410 -0.7267 -0.6724
vn 0.7338 -0.6745 0.0814
vn -0.7338 -0.6745 -0.0814
vn -0.6724 -0.7267 -0.1410
vn 0.4318 -0.7919 -0.4318
vn 0.4318 -0.7919 0.4318
vn -0.4318 -0.7919 0.4318
vn -0.4318 -0.7919 -0.4318
usemtl PrincessCutDiamond
s off
f 9/1/1 7/2/1 4/3/1 8/4/1
f 5/5/1 9/1/1 8/4/1 3/6/1
f 1/7/1 6/8/1 9/1/1 5/5/1
f 6/8/1 2/9/1 7/2/1 9/1/1
f 14/10/2 3/11/2 18/12/2 12/13/2
f 16/14/3 13/15/3 17/16/3 4/17/3
f 15/18/4 11/19/4 19/20/4 2/21/4
f 20/22/5 1/7/5 21/23/5 10/24/5
f 14/10/6 21/23/6 5/25/6
f 15/18/7 6/26/7 20/22/7
f 17/16/8 18/12/8 8/27/8
f 3/11/9 8/27/9 18/12/9
f 5/25/10 3/11/10 14/10/10
f 1/7/11 5/25/11 21/23/11
f 6/26/12 1/7/12 20/22/12
f 2/21/13 6/26/13 15/18/13
f 7/2/14 2/21/14 19/20/14
f 4/17/15 7/2/15 16/14/15
f 8/27/16 4/17/16 17/16/16
f 13/15/17 31/28/17 17/16/17
f 12/13/18 33/29/18 14/10/18
f 16/14/19 7/2/19 19/20/19
f 13/15/20 16/14/20 29/30/20
f 11/19/21 15/18/21 27/31/21
f 27/31/22 28/32/22 23/33/22 11/19/22
f 31/28/23 32/34/23 24/35/23 12/13/23
f 29/30/24 30/36/24 25/37/24 13/15/24
f 33/29/25 12/13/25 24/35/25 34/38/25
f 22/39/26 38/40/26 42/41/26
f 23/33/27 44/42/27 40/43/27
f 25/37/28 41/44/28 37/45/28
f 22/39/29 43/46/29 39/47/29
f 10/24/22 22/39/22 28/32/22 27/31/22
f 11/19/24 23/33/24 30/36/24 29/30/24
f 13/15/23 25/37/23 32/34/23 31/28/23
f 10/24/25 33/29/25 34/38/25 22/39/25
f 27/31/21 20/22/21 10/24/21
f 27/31/21 15/18/21 20/22/21
f 14/10/18 33/29/18 21/23/18
f 21/23/18 33/29/18 10/24/18
f 17/16/17 31/28/17 18/12/17
f 18/12/17 31/28/17 12/13/17
f 29/30/20 19/20/20 11/19/20
f 19/20/20 29/30/20 16/14/20
f 28/32/30 35/48/30 23/33/30
f 30/36/31 36/49/31 25/37/31
f 32/34/32 37/45/32 24/35/32
f 38/40/33 22/39/33 34/38/33
f 35/48/30 28/32/30 22/39/30
f 36/49/31 30/36/31 23/33/31
f 23/33/34 39/47/34 43/46/34
f 25/37/35 40/43/35 44/42/35
f 24/35/36 37/45/36 41/44/36
f 37/45/32 32/34/32 25/37/32
f 24/35/33 38/40/33 34/38/33
f 42/41/37 46/50/37 22/39/37
f 39/47/38 23/33/38 35/48/38
f 39/47/39 35/48/39 22/39/39
f 40/43/40 25/37/40 36/49/40
f 41/44/41 25/37/41 45/51/41
f 41/44/42 45/51/42 24/35/42
f 40/43/43 36/49/43 23/33/43
f 24/35/44 42/41/44 38/40/44
f 24/35/45 46/50/45 42/41/45
f 44/42/46 26/52/46 45/51/46 25/37/46
f 43/46/47 26/52/47 44/42/47 23/33/47
f 43/46/48 22/39/48 46/50/48 26/52/48
f 46/50/49 24/35/49 45/51/49 26/52/49
